<svg xmlns="http://www.w3.org/2000/svg" width="193.193" height="193.19" viewBox="0 0 193.193 193.19">
  <g id="Group_1472" data-name="Group 1472" transform="translate(-463.499 -3022.938)">
    <path id="Path_858" data-name="Path 858" d="M538,158v94.6h23.649V158Z" transform="translate(93.043 2913.976)" fill="#030303" stroke="#fcfbfa" stroke-width="4"/>
    <path id="Path_865" data-name="Path 865" d="M281.3,53.3V6H234V29.649h23.649v47.3h47.3V53.3Z" transform="translate(302.445 3018.939)" fill="#030303" stroke="#fcfbfa" stroke-width="4"/>
    <path id="Path_862" data-name="Path 862" d="M409.649,82H386v23.649h23.649v47.3H386V176.6h47.3V82Z" transform="translate(197.746 2966.585)" fill="#030303" stroke="#fcfbfa" stroke-width="4"/>
    <path id="Path_859" data-name="Path 859" d="M23.649,0V23.649H0V47.3H47.3V0Z" transform="translate(583.746 3190.48) rotate(-180)" fill="#030303" stroke="#fcfbfa" stroke-width="4"/>
    <path id="Path_860" data-name="Path 860" d="M152.947,310H82v23.649h23.649V357.3H129.3V333.649h47.3V310Z" transform="translate(407.148 2809.275)" fill="#030303" stroke="#fcfbfa" stroke-width="4"/>
    <path id="Path_861" data-name="Path 861" d="M23.649,0H0V47.3H23.649V23.649H47.3V0Z" transform="translate(654.691 3214.128) rotate(180)" fill="#030303" stroke="#fcfbfa" stroke-width="4"/>
    <path id="Path_866" data-name="Path 866" d="M23.649,23.649V0H0V47.3H23.649V70.947H47.3v-47.3Z" transform="translate(489.148 3095.625) rotate(-90)" fill="#030303" stroke="#fcfbfa" stroke-width="4"/>
    <path id="Path_864" data-name="Path 864" d="M53.3,129.3H29.649V82H6v70.947H76.947V129.3Z" transform="translate(459.5 2966.585)" fill="#030303" stroke="#fcfbfa" stroke-width="4"/>
    <path id="Path_863" data-name="Path 863" d="M47.3,0H23.649V23.649H0V47.3H47.3V23.649H70.947V0Z" transform="translate(512.797 3119.535) rotate(90)" fill="#030303" stroke="#fcfbfa" stroke-width="4"/>
    <path id="Path_867" data-name="Path 867" d="M47.3,23.649H23.649V0H0V47.3H70.947V23.649Z" transform="translate(654.691 3072.236) rotate(180)" fill="#030303" stroke="#fcfbfa" stroke-width="4"/>
    <g id="Group_1426" data-name="Group 1426" transform="translate(-76.5 1370.533)">
      <path id="Path_846" data-name="Path 846" d="M47.3,0H0V23.649H47.3V47.3H70.947V0Z" transform="translate(683.895 1749.002) rotate(180)" fill="#fcfbfa" stroke="#030303" stroke-width="4"/>
      <path id="Path_854" data-name="Path 854" d="M409.649,386H386v47.3h47.3V386Z" transform="translate(274.246 1386.391)" fill="#fcfbfa" stroke="#030303" stroke-width="4"/>
      <path id="Path_848" data-name="Path 848" d="M281.3,485.649V462H257.649v23.649H234V509.3h70.947V485.649Z" transform="translate(378.947 1334.041)" fill="#fcfbfa" stroke="#030303" stroke-width="4"/>
      <path id="Path_851" data-name="Path 851" d="M53.3,462v23.649H29.649V462H6v47.3H76.947V462Z" transform="translate(536 1334.041)" fill="#fcfbfa" stroke="#030303" stroke-width="4"/>
      <path id="Path_845" data-name="Path 845" d="M53.3,6H6V29.649H29.649V53.3H53.3V29.649H76.947V6Z" transform="translate(536.002 1648.406)" fill="#fcfbfa" stroke="#030303" stroke-width="4"/>
    </g>
  </g>
</svg>
