<svg xmlns="http://www.w3.org/2000/svg" width="193.193" height="193.19" viewBox="0 0 193.193 193.19">
  <g id="Group_1470" data-name="Group 1470" transform="translate(-463.499 -2416.938)">
    <path id="Path_830" data-name="Path 830" d="M538,158v94.6h23.649V158Z" transform="translate(93.043 2307.976)" fill="#030303" stroke="#fcfbfa" stroke-width="4"/>
    <path id="Path_832" data-name="Path 832" d="M281.3,53.3V6H234V29.649h23.649v47.3h47.3V53.3Z" transform="translate(302.445 2412.939)" fill="#030303" stroke="#fcfbfa" stroke-width="4"/>
    <path id="Path_833" data-name="Path 833" d="M409.649,82H386v23.649h23.649v47.3H386V176.6h47.3V82Z" transform="translate(197.746 2360.585)" fill="#030303" stroke="#fcfbfa" stroke-width="4"/>
    <path id="Path_828" data-name="Path 828" d="M23.649,0V23.649H0V47.3H47.3V0Z" transform="translate(583.746 2584.48) rotate(-180)" fill="#030303" stroke="#fcfbfa" stroke-width="4"/>
    <path id="Path_834" data-name="Path 834" d="M152.947,310H82v23.649h23.649V357.3H129.3V333.649h47.3V310Z" transform="translate(407.148 2203.275)" fill="#030303" stroke="#fcfbfa" stroke-width="4"/>
    <path id="Path_825" data-name="Path 825" d="M23.649,0H0V47.3H23.649V23.649H47.3V0Z" transform="translate(654.691 2608.128) rotate(180)" fill="#030303" stroke="#fcfbfa" stroke-width="4"/>
    <path id="Path_835" data-name="Path 835" d="M23.649,23.649V0H0V47.3H23.649V70.947H47.3v-47.3Z" transform="translate(489.148 2489.625) rotate(-90)" fill="#030303" stroke="#fcfbfa" stroke-width="4"/>
    <path id="Path_836" data-name="Path 836" d="M53.3,129.3H29.649V82H6v70.947H76.947V129.3Z" transform="translate(459.5 2360.585)" fill="#030303" stroke="#fcfbfa" stroke-width="4"/>
    <path id="Path_829" data-name="Path 829" d="M47.3,0H23.649V23.649H0V47.3H47.3V23.649H70.947V0Z" transform="translate(512.797 2513.535) rotate(90)" fill="#030303" stroke="#fcfbfa" stroke-width="4"/>
    <path id="Path_842" data-name="Path 842" d="M47.3,23.649H23.649V0H0V47.3H70.947V23.649Z" transform="translate(654.691 2466.236) rotate(180)" fill="#030303" stroke="#fcfbfa" stroke-width="4"/>
  </g>
</svg>
