<svg xmlns="http://www.w3.org/2000/svg" width="610.833" height="424.116" viewBox="0 0 610.833 424.116">
  <g id="Puzzle" transform="translate(2 2)">
    <path id="Path_157" data-name="Path 157" d="M538,158V344.717h46.679V158Z" transform="translate(-211.242 28.716)" fill="#030303" stroke="#fcfbfa" stroke-width="4"/>
    <path id="Path_158" data-name="Path 158" d="M479.359,6H386V52.679h93.359V99.359h46.679V6Z" transform="translate(192.717 -246.47) rotate(90)" fill="#030303" stroke="#fcfbfa" stroke-width="4"/>
    <path id="Path_160" data-name="Path 160" d="M327.359,99.359V6H234V52.679h46.679v93.359h93.359V99.359Z" transform="translate(239.396 -0.606) rotate(90)" fill="#030303" stroke="#fcfbfa" stroke-width="4"/>
    <path id="Path_162" data-name="Path 162" d="M432.679,386H386v93.359h93.359V386Z" transform="translate(-245.961 -59.243)" fill="#030303" stroke="#fcfbfa" stroke-width="4"/>
    <path id="Path_164" data-name="Path 164" d="M432.679,82H386v46.679h46.679v93.359H386v46.679h93.359V82Z" transform="translate(666.076 314.89) rotate(180)" fill="#030303" stroke="#fcfbfa" stroke-width="4"/>
    <path id="Path_166" data-name="Path 166" d="M327.359,508.679V462H280.679v46.679H234v46.679H374.038V508.679Z" transform="translate(-234 -135.249)" fill="#030303" stroke="#fcfbfa" stroke-width="4"/>
    <path id="Path_168" data-name="Path 168" d="M508.679,462v46.679H462v46.679h93.359V462Z" transform="translate(928.797 -135.243) rotate(90)" fill="#030303" stroke="#fcfbfa" stroke-width="4"/>
    <path id="Path_170" data-name="Path 170" d="M222.038,310H82v46.679h46.679v46.679h46.679V356.679h93.359V310Z" transform="translate(636.757 104.718) rotate(90)" fill="#030303" stroke="#fcfbfa" stroke-width="4"/>
    <path id="Path_172" data-name="Path 172" d="M280.679,386H234v93.359h46.679V432.679h46.679V386Z" transform="translate(946.156 45.567) rotate(90)" fill="#030303" stroke="#fcfbfa" stroke-width="4"/>
    <path id="Path_174" data-name="Path 174" d="M99.359,462v46.679H52.679V462H6v93.359H146.038V462Z" transform="translate(227.396 -369.149)" fill="#030303" stroke="#fcfbfa" stroke-width="4"/>
    <path id="Path_176" data-name="Path 176" d="M52.679,356.679V310H6v93.359H52.679v46.679H99.359V356.679Z" transform="translate(367.438 -170.47)" fill="#030303" stroke="#fcfbfa" stroke-width="4"/>
    <path id="Path_178" data-name="Path 178" d="M99.359,175.359H52.679V82H6V222.038H146.038V175.359Z" transform="translate(227.397 198.075)" fill="#030303" stroke="#fcfbfa" stroke-width="4"/>
    <path id="Path_180" data-name="Path 180" d="M99.359,6H6V52.679H52.679V99.359H99.359V52.679h46.679V6Z" transform="translate(274.076 146.038) rotate(-90)" fill="#030303" stroke="#fcfbfa" stroke-width="4"/>
    <path id="Path_182" data-name="Path 182" d="M175.359,82H128.679v46.679H82v46.679h93.359V128.679h46.679V82Z" transform="translate(548.795 151.397) rotate(90)" fill="#030303" stroke="#fcfbfa" stroke-width="4"/>
    <path id="Path_184" data-name="Path 184" d="M327.359,204.679H280.679V158H234v93.359H374.038V204.679Z" transform="translate(232.795 168.247)" fill="#030303" stroke="#fcfbfa" stroke-width="4"/>
  </g>
</svg>
